<svg width="50" height="50" viewBox="0 0 50 50" fill="none" xmlns="http://www.w3.org/2000/svg">
<path d="M20.8333 47.9166V43.7499H10.4167C9.27083 43.7499 8.28993 43.3419 7.47396 42.526C6.65799 41.71 6.25 40.7291 6.25 39.5833V10.4166C6.25 9.27075 6.65799 8.28985 7.47396 7.47388C8.28993 6.6579 9.27083 6.24992 10.4167 6.24992H20.8333V2.08325H25V47.9166H20.8333ZM10.4167 37.4999H20.8333V24.9999L10.4167 37.4999ZM29.1667 43.7499V24.9999L39.5833 37.4999V10.4166H29.1667V6.24992H39.5833C40.7292 6.24992 41.7101 6.6579 42.526 7.47388C43.342 8.28985 43.75 9.27075 43.75 10.4166V39.5833C43.75 40.7291 43.342 41.71 42.526 42.526C41.7101 43.3419 40.7292 43.7499 39.5833 43.7499H29.1667Z" fill="#4B4DF7"/>
</svg>
