<svg width="34" height="34" viewBox="0 0 34 34" fill="none" xmlns="http://www.w3.org/2000/svg">
<path d="M7.83325 26.1666L20.3333 20.3333L26.1666 7.83325L13.6666 13.6666L7.83325 26.1666ZM16.9999 18.6666C16.5277 18.6666 16.1319 18.5069 15.8124 18.1874C15.493 17.868 15.3333 17.4721 15.3333 16.9999C15.3333 16.5277 15.493 16.1319 15.8124 15.8124C16.1319 15.493 16.5277 15.3333 16.9999 15.3333C17.4721 15.3333 17.868 15.493 18.1874 15.8124C18.5069 16.1319 18.6666 16.5277 18.6666 16.9999C18.6666 17.4721 18.5069 17.868 18.1874 18.1874C17.868 18.5069 17.4721 18.6666 16.9999 18.6666ZM16.9999 33.6666C14.6944 33.6666 12.5277 33.2291 10.4999 32.3541C8.47214 31.4791 6.70825 30.2916 5.20825 28.7916C3.70825 27.2916 2.52075 25.5277 1.64575 23.4999C0.770752 21.4721 0.333252 19.3055 0.333252 16.9999C0.333252 14.6944 0.770752 12.5277 1.64575 10.4999C2.52075 8.47214 3.70825 6.70825 5.20825 5.20825C6.70825 3.70825 8.47214 2.52075 10.4999 1.64575C12.5277 0.770752 14.6944 0.333252 16.9999 0.333252C19.3055 0.333252 21.4721 0.770752 23.4999 1.64575C25.5277 2.52075 27.2916 3.70825 28.7916 5.20825C30.2916 6.70825 31.4791 8.47214 32.3541 10.4999C33.2291 12.5277 33.6666 14.6944 33.6666 16.9999C33.6666 19.3055 33.2291 21.4721 32.3541 23.4999C31.4791 25.5277 30.2916 27.2916 28.7916 28.7916C27.2916 30.2916 25.5277 31.4791 23.4999 32.3541C21.4721 33.2291 19.3055 33.6666 16.9999 33.6666ZM16.9999 30.3333C20.7221 30.3333 23.8749 29.0416 26.4583 26.4583C29.0416 23.8749 30.3333 20.7221 30.3333 16.9999C30.3333 13.2777 29.0416 10.1249 26.4583 7.54158C23.8749 4.95825 20.7221 3.66658 16.9999 3.66658C13.2777 3.66658 10.1249 4.95825 7.54158 7.54158C4.95825 10.1249 3.66658 13.2777 3.66658 16.9999C3.66658 20.7221 4.95825 23.8749 7.54158 26.4583C10.1249 29.0416 13.2777 30.3333 16.9999 30.3333Z" fill="#5E5F61"/>
</svg>
