<svg width="20" height="20" viewBox="0 0 20 20" fill="none" xmlns="http://www.w3.org/2000/svg">
<path d="M5.41669 14.5834L11.6667 11.6667L14.5834 5.41675L8.33335 8.33341L5.41669 14.5834ZM10 10.8334C9.76391 10.8334 9.56599 10.7536 9.40627 10.5938C9.24655 10.4341 9.16669 10.2362 9.16669 10.0001C9.16669 9.76397 9.24655 9.56605 9.40627 9.40633C9.56599 9.24661 9.76391 9.16675 10 9.16675C10.2361 9.16675 10.434 9.24661 10.5938 9.40633C10.7535 9.56605 10.8334 9.76397 10.8334 10.0001C10.8334 10.2362 10.7535 10.4341 10.5938 10.5938C10.434 10.7536 10.2361 10.8334 10 10.8334ZM10 18.3334C8.84724 18.3334 7.76391 18.1147 6.75002 17.6772C5.73613 17.2397 4.85419 16.6459 4.10419 15.8959C3.35419 15.1459 2.76044 14.264 2.32294 13.2501C1.88544 12.2362 1.66669 11.1529 1.66669 10.0001C1.66669 8.8473 1.88544 7.76397 2.32294 6.75008C2.76044 5.73619 3.35419 4.85425 4.10419 4.10425C4.85419 3.35425 5.73613 2.7605 6.75002 2.323C7.76391 1.8855 8.84724 1.66675 10 1.66675C11.1528 1.66675 12.2361 1.8855 13.25 2.323C14.2639 2.7605 15.1459 3.35425 15.8959 4.10425C16.6459 4.85425 17.2396 5.73619 17.6771 6.75008C18.1146 7.76397 18.3334 8.8473 18.3334 10.0001C18.3334 11.1529 18.1146 12.2362 17.6771 13.2501C17.2396 14.264 16.6459 15.1459 15.8959 15.8959C15.1459 16.6459 14.2639 17.2397 13.25 17.6772C12.2361 18.1147 11.1528 18.3334 10 18.3334ZM10 16.6667C11.8611 16.6667 13.4375 16.0209 14.7292 14.7292C16.0209 13.4376 16.6667 11.8612 16.6667 10.0001C16.6667 8.13897 16.0209 6.56258 14.7292 5.27091C13.4375 3.97925 11.8611 3.33341 10 3.33341C8.13891 3.33341 6.56252 3.97925 5.27085 5.27091C3.97919 6.56258 3.33335 8.13897 3.33335 10.0001C3.33335 11.8612 3.97919 13.4376 5.27085 14.7292C6.56252 16.0209 8.13891 16.6667 10 16.6667Z" fill="#E74C3C"/>
</svg>
