<svg width="20" height="20" viewBox="0 0 20 20" fill="none" xmlns="http://www.w3.org/2000/svg">
<path d="M10 18.3334L9.79167 15.8334H9.58333C7.61111 15.8334 5.9375 15.1459 4.5625 13.7709C3.1875 12.3959 2.5 10.7223 2.5 8.75008C2.5 6.77786 3.1875 5.10425 4.5625 3.72925C5.9375 2.35425 7.61111 1.66675 9.58333 1.66675C10.5694 1.66675 11.4896 1.85078 12.3438 2.21883C13.1979 2.58689 13.9479 3.09383 14.5938 3.73966C15.2396 4.3855 15.7465 5.1355 16.1146 5.98966C16.4826 6.84383 16.6667 7.76397 16.6667 8.75008C16.6667 9.79175 16.4965 10.7917 16.1562 11.7501C15.816 12.7084 15.3507 13.5973 14.7604 14.4167C14.1701 15.2362 13.4688 15.9792 12.6562 16.6459C11.8438 17.3126 10.9583 17.8751 10 18.3334ZM11.6667 15.2917C12.6528 14.4584 13.4549 13.4827 14.0729 12.3647C14.691 11.2466 15 10.0417 15 8.75008C15 7.23619 14.4757 5.95494 13.4271 4.90633C12.3785 3.85772 11.0972 3.33341 9.58333 3.33341C8.06944 3.33341 6.78819 3.85772 5.73958 4.90633C4.69097 5.95494 4.16667 7.23619 4.16667 8.75008C4.16667 10.264 4.69097 11.5452 5.73958 12.5938C6.78819 13.6424 8.06944 14.1667 9.58333 14.1667H11.6667V15.2917ZM9.5625 13.3126C9.79861 13.3126 10 13.2292 10.1667 13.0626C10.3333 12.8959 10.4167 12.6945 10.4167 12.4584C10.4167 12.2223 10.3333 12.0209 10.1667 11.8542C10 11.6876 9.79861 11.6042 9.5625 11.6042C9.32639 11.6042 9.125 11.6876 8.95833 11.8542C8.79167 12.0209 8.70833 12.2223 8.70833 12.4584C8.70833 12.6945 8.79167 12.8959 8.95833 13.0626C9.125 13.2292 9.32639 13.3126 9.5625 13.3126ZM8.95833 10.6667H10.2083C10.2083 10.2501 10.25 9.95841 10.3333 9.79175C10.4167 9.62508 10.6806 9.31953 11.125 8.87508C11.375 8.62508 11.5833 8.35425 11.75 8.06258C11.9167 7.77091 12 7.45841 12 7.12508C12 6.41675 11.7604 5.8855 11.2812 5.53133C10.8021 5.17716 10.2361 5.00008 9.58333 5.00008C8.97222 5.00008 8.45833 5.17022 8.04167 5.5105C7.625 5.85078 7.33333 6.26397 7.16667 6.75008L8.33333 7.20841C8.40278 6.9723 8.53472 6.73966 8.72917 6.5105C8.92361 6.28133 9.20833 6.16675 9.58333 6.16675C9.95833 6.16675 10.2396 6.27091 10.4271 6.47925C10.6146 6.68758 10.7083 6.91675 10.7083 7.16675C10.7083 7.40286 10.6389 7.61466 10.5 7.80216C10.3611 7.98966 10.1944 8.18064 10 8.37508C9.51389 8.79175 9.21875 9.12161 9.11458 9.36466C9.01042 9.60772 8.95833 10.0417 8.95833 10.6667Z" fill="#E67E22"/>
</svg>
