<svg width="40" height="40" viewBox="0 0 40 40" fill="none" xmlns="http://www.w3.org/2000/svg">
<path d="M20 36.6668C19.0833 36.6668 18.2986 36.3404 17.6458 35.6877C16.9931 35.0349 16.6667 34.2502 16.6667 33.3335H23.3333C23.3333 34.2502 23.0069 35.0349 22.3542 35.6877C21.7014 36.3404 20.9167 36.6668 20 36.6668ZM13.3333 31.6668V28.3335H26.6667V31.6668H13.3333ZM13.75 26.6668C11.8333 25.5279 10.3125 24.0002 9.1875 22.0835C8.0625 20.1668 7.5 18.0835 7.5 15.8335C7.5 12.3613 8.71528 9.40988 11.1458 6.97933C13.5764 4.54877 16.5278 3.3335 20 3.3335C23.4722 3.3335 26.4236 4.54877 28.8542 6.97933C31.2847 9.40988 32.5 12.3613 32.5 15.8335C32.5 18.0835 31.9375 20.1668 30.8125 22.0835C29.6875 24.0002 28.1667 25.5279 26.25 26.6668H13.75ZM14.75 23.3335H25.25C26.5 22.4446 27.4653 21.3474 28.1458 20.0418C28.8264 18.7363 29.1667 17.3335 29.1667 15.8335C29.1667 13.2779 28.2778 11.1113 26.5 9.3335C24.7222 7.55572 22.5556 6.66683 20 6.66683C17.4444 6.66683 15.2778 7.55572 13.5 9.3335C11.7222 11.1113 10.8333 13.2779 10.8333 15.8335C10.8333 17.3335 11.1736 18.7363 11.8542 20.0418C12.5347 21.3474 13.5 22.4446 14.75 23.3335Z" fill="#5E5F61"/>
</svg>
