<svg width="40" height="40" viewBox="0 0 40 40" fill="none" xmlns="http://www.w3.org/2000/svg">
<g clip-path="url(#clip0_29_17)">
<path fill-rule="evenodd" clip-rule="evenodd" d="M22.4407 1.09738C21.0388 -0.360353 18.7665 -0.359875 17.3653 1.09846L5.67084 13.2694L5.66087 13.2663L5.62392 13.2704C5.63914 13.2781 5.65408 13.2856 5.66872 13.2932C3.61726 13.5168 2.74686 14.1581 2.737 14.9817C2.74048 15.2881 2.8613 15.6189 3.08324 15.9624L3.07257 15.9735C4.93756 18.8998 14.1766 22.7599 20.713 20.1445C15.8142 22.6927 4.27741 23.1977 0.888863 18.2502C0.152978 19.0784 -0.154912 20.1668 -0.0389655 21.2127C0.856195 26.3455 10.8641 27.7457 20.8722 20.309L23.0379 22.562C20.343 25.4423 16.3623 42.1725 22.2771 39.6182C22.4174 39.5191 22.5365 39.4304 22.6985 39.3029L22.9621 39.044C22.9469 39.0479 22.9318 39.0516 22.9168 39.0553L38.758 23.4974C40.2289 22.0528 40.2622 19.6297 38.8315 18.142L22.4407 1.09738ZM20.7156 6.16755L21.257 3.91457L21.7984 6.16755L23.4227 6.73081L21.7984 7.29407L21.257 9.54706L20.7156 7.29407L19.0913 6.73081L20.7156 6.16755ZM14.0142 13.5223L14.3751 12.0203L14.736 13.5223L15.8189 13.8978L14.736 14.2733L14.3751 15.7753L14.0142 14.2733L12.9314 13.8978L14.0142 13.5223ZM26.5854 26.1916L26.2245 27.6935L25.1417 28.0691L26.2245 28.4446L26.5854 29.9465L26.9464 28.4446L28.0293 28.0691L26.9464 27.6935L26.5854 26.1916Z" fill="#4B4DF7"/>
<path fill-rule="evenodd" clip-rule="evenodd" d="M39.9797 2.59375C36.5931 2.59375 33.3814 4.15866 31.2133 6.86524L23.5 16.4943L27.954 9.544L20.5608 12.8403C19.6219 13.2589 19.3863 14.5315 20.1085 15.2829L22.4877 17.7579L21.273 19.2744L23.9454 22.0545L25.4031 20.7908L27.7822 23.2659C28.5045 24.0173 29.7279 23.7722 30.1302 22.7955L33.2987 15.1043L26.6178 19.7378L35.8738 11.7135C38.4755 9.45809 39.9797 6.11692 39.9797 2.59375ZM32.6307 10.2392C33.3686 11.0069 34.5651 11.0069 35.3031 10.2392C36.041 9.47146 36.041 8.22679 35.3031 7.45913C34.5651 6.69138 33.3686 6.69138 32.6307 7.45913C31.8927 8.22679 31.8927 9.47146 32.6307 10.2392Z" fill="#069BFF"/>
<path opacity="0.6" d="M0.810059 18.1262C2.57949 24.4329 13.3373 24.1041 20.7181 20.151C15.7758 22.7202 4.08437 23.2109 0.810059 18.1262Z" fill="#4B4DF7"/>
<path opacity="0.6" d="M22.2789 39.6178C17.2949 41.7701 19.337 30.23 21.7155 24.8213C19.9817 29.6288 18.5018 40.2265 22.9639 39.0436L22.7003 39.3025C22.5383 39.43 22.4192 39.5187 22.2789 39.6178Z" fill="#4B4DF7"/>
</g>
<defs>
<clipPath id="clip0_29_17">
<rect width="40" height="40" fill="white"/>
</clipPath>
</defs>
</svg>
