<svg width="27" height="27" viewBox="0 0 27 27" fill="none" xmlns="http://www.w3.org/2000/svg">
<path d="M14.6377 24.6084C11.8395 24.6084 9.46122 23.6303 7.50271 21.6742C5.5442 19.7178 4.56494 17.3424 4.56494 14.5479C4.56494 12.0005 5.39625 9.79166 7.05888 7.92145C8.72151 6.05124 10.7796 4.94689 13.2331 4.6084C13.3009 4.6084 13.3675 4.61081 13.433 4.61563C13.4983 4.62045 13.5624 4.62768 13.6253 4.63732C13.2008 5.22901 12.8648 5.88724 12.6171 6.61202C12.3693 7.33658 12.2454 8.09552 12.2454 8.88884C12.2454 11.1246 13.0287 13.0249 14.5955 14.5897C16.1624 16.1547 18.0651 16.9373 20.3036 16.9373C21.1024 16.9373 21.8636 16.8135 22.5869 16.566C23.31 16.3184 23.9597 15.9827 24.536 15.5586C24.5456 15.6215 24.5529 15.6857 24.5577 15.7511C24.5625 15.8162 24.5649 15.8828 24.5649 15.9507C24.2422 18.4013 23.1446 20.4569 21.2721 22.1175C19.3996 23.7781 17.1881 24.6084 14.6377 24.6084ZM14.6377 23.3508C16.4843 23.3508 18.1421 22.8426 19.6111 21.826C21.08 20.8095 22.1502 19.4838 22.8217 17.849C22.402 17.9538 21.9823 18.0376 21.5626 18.1005C21.1429 18.1634 20.7233 18.1948 20.3036 18.1948C17.7224 18.1948 15.5243 17.2883 13.7091 15.4753C11.8939 13.6623 10.9863 11.4668 10.9863 8.88884C10.9863 8.46965 11.0178 8.05046 11.0807 7.63127C11.1437 7.21208 11.2276 6.79289 11.3325 6.37371C9.69573 7.04441 8.36844 8.11334 7.35068 9.5805C6.33291 11.0477 5.82403 12.7035 5.82403 14.5479C5.82403 16.9792 6.68441 19.0542 8.40516 20.7728C10.1259 22.4915 12.2034 23.3508 14.6377 23.3508Z" fill="#5E5F61"/>
</svg>
