<svg width="27" height="27" viewBox="0 0 27 27" fill="none" xmlns="http://www.w3.org/2000/svg">
<path d="M13.0727 24C10.2746 24 7.89628 23.0219 5.93777 21.0658C3.97926 19.1094 3 16.734 3 13.9395C3 11.3921 3.83131 9.18326 5.49394 7.31306C7.15657 5.44285 9.21465 4.33849 11.6682 4C11.736 4 11.8026 4.00241 11.8681 4.00723C11.9333 4.01205 11.9975 4.01928 12.0604 4.02893C11.6359 4.62061 11.2998 5.27884 11.0522 6.00362C10.8044 6.72818 10.6804 7.48712 10.6804 8.28044C10.6804 10.5162 11.4638 12.4165 13.0305 13.9813C14.5975 15.5463 16.5002 16.3289 18.7386 16.3289C19.5375 16.3289 20.2986 16.2051 21.022 15.9576C21.7451 15.71 22.3948 15.3743 22.971 14.9502C22.9807 15.0131 22.9879 15.0773 22.9928 15.1427C22.9976 15.2078 23 15.2744 23 15.3423C22.6773 17.7929 21.5796 19.8485 19.7072 21.5091C17.8347 23.1697 15.6232 24 13.0727 24Z" fill="white"/>
</svg>
