<svg width="20" height="20" viewBox="0 0 20 20" fill="none" xmlns="http://www.w3.org/2000/svg">
<path d="M9.98802 0.00214856C9.96764 0.00586466 9.94726 0.0114381 9.92873 0.017012C9.70824 0.0671763 9.5526 0.265975 9.55816 0.492643V3.34643C9.5563 3.51736 9.64524 3.67714 9.79347 3.76446C9.9417 3.84993 10.1233 3.84993 10.2715 3.76446C10.4197 3.67714 10.5087 3.51736 10.5068 3.34643V0.492643C10.5124 0.355156 10.4568 0.223242 10.3586 0.130346C10.2585 0.0355915 10.1233 -0.0108571 9.98802 0.00214856ZM3.22875 2.79648C3.05088 2.82806 2.90821 2.95812 2.85818 3.13091C2.80815 3.30555 2.86003 3.49135 2.99159 3.61397L5.00751 5.6354C5.12239 5.7766 5.30582 5.84163 5.48369 5.80075C5.65972 5.75988 5.79868 5.62054 5.83945 5.44403C5.88021 5.26567 5.81536 5.08174 5.67454 4.96654L3.65862 2.94511C3.56042 2.83921 3.41775 2.78533 3.27322 2.79648C3.2584 2.79648 3.24358 2.79648 3.22875 2.79648ZM16.688 2.79648C16.5805 2.81134 16.4805 2.86522 16.4064 2.94511L14.3904 4.96654C14.2496 5.08174 14.1848 5.26567 14.2255 5.44403C14.2663 5.62054 14.4053 5.75988 14.5813 5.80075C14.7592 5.84163 14.9426 5.7766 15.0575 5.6354L17.0734 3.61397C17.2216 3.47277 17.2642 3.25167 17.1772 3.06588C17.0882 2.87823 16.8918 2.77047 16.688 2.79648ZM9.98802 5.24895C9.9732 5.25267 9.95837 5.25824 9.94355 5.26381C9.91391 5.26567 9.88426 5.27124 9.85461 5.27868C9.84906 5.28425 9.84535 5.28797 9.83979 5.29354C7.32359 5.4013 5.28914 7.45617 5.28914 10.0053C5.28914 12.6231 7.4218 14.7616 10.0325 14.7616C12.6432 14.7616 14.7758 12.6231 14.7758 10.0053C14.7758 7.46546 12.7581 5.41802 10.2548 5.29354C10.2382 5.29354 10.227 5.27868 10.2104 5.27868C10.1622 5.2601 10.1122 5.25081 10.0621 5.24895C10.0529 5.24895 10.0418 5.24895 10.0325 5.24895C10.0177 5.24895 10.0028 5.24895 9.98802 5.24895ZM10.0028 6.20021C10.0121 6.20021 10.0232 6.20021 10.0325 6.20021C10.0473 6.20021 10.0621 6.20021 10.077 6.20021C12.1522 6.22436 13.8272 7.9188 13.8272 10.0053C13.8272 12.1084 12.1299 13.8103 10.0325 13.8103C7.93689 13.8103 6.23781 12.1084 6.23781 10.0053C6.23781 7.91322 7.92022 6.21693 10.0028 6.20021ZM0.412391 9.52962C0.151136 9.56678 -0.032298 9.81017 0.00475941 10.0721C0.0418168 10.3341 0.284543 10.518 0.545797 10.4809H3.3918C3.56227 10.4827 3.72162 10.3936 3.8087 10.2449C3.89393 10.0963 3.89393 9.91422 3.8087 9.76558C3.72162 9.61695 3.56227 9.52777 3.3918 9.52962H0.545797C0.530974 9.52962 0.516151 9.52962 0.501328 9.52962C0.486505 9.52962 0.471683 9.52962 0.45686 9.52962C0.442037 9.52962 0.427214 9.52962 0.412391 9.52962ZM16.5398 9.52962C16.2785 9.56678 16.0951 9.81017 16.1321 10.0721C16.1692 10.3341 16.4119 10.518 16.6732 10.4809H19.5192C19.6896 10.4827 19.849 10.3936 19.9361 10.2449C20.0213 10.0963 20.0213 9.91422 19.9361 9.76558C19.849 9.61695 19.6896 9.52777 19.5192 9.52962H16.6732C16.6583 9.52962 16.6435 9.52962 16.6287 9.52962C16.6139 9.52962 16.5991 9.52962 16.5842 9.52962C16.5694 9.52962 16.5546 9.52962 16.5398 9.52962ZM5.28914 14.2265C5.18168 14.2413 5.08162 14.2952 5.00751 14.3751L2.99159 16.3965C2.85077 16.5117 2.78592 16.6957 2.82668 16.874C2.86744 17.0505 3.00641 17.1899 3.18243 17.2308C3.36031 17.2716 3.54374 17.2066 3.65862 17.0654L5.67454 15.044C5.81536 14.9083 5.85797 14.6984 5.78201 14.5182C5.70789 14.338 5.52816 14.2228 5.33361 14.2265C5.31879 14.2265 5.30397 14.2265 5.28914 14.2265ZM14.6276 14.2265C14.4497 14.2581 14.3071 14.3881 14.257 14.5609C14.207 14.7355 14.2589 14.9213 14.3904 15.044L16.4064 17.0654C16.5212 17.2066 16.7047 17.2716 16.8825 17.2308C17.0586 17.1899 17.1975 17.0505 17.2383 16.874C17.2791 16.6957 17.2142 16.5117 17.0734 16.3965L15.0575 14.3751C14.9685 14.2804 14.8462 14.2283 14.7165 14.2265C14.7017 14.2265 14.6869 14.2265 14.6721 14.2265C14.6573 14.2265 14.6424 14.2265 14.6276 14.2265ZM9.98802 16.1736C9.96764 16.1773 9.94726 16.1829 9.92873 16.1885C9.70824 16.2386 9.5526 16.4374 9.55816 16.6641V19.5179C9.5563 19.6888 9.64524 19.8486 9.79347 19.9359C9.9417 20.0214 10.1233 20.0214 10.2715 19.9359C10.4197 19.8486 10.5087 19.6888 10.5068 19.5179V16.6641C10.5124 16.5266 10.4568 16.3947 10.3586 16.3018C10.2585 16.207 10.1233 16.1606 9.98802 16.1736Z" fill="#5E5F61"/>
</svg>
