<svg width="20" height="20" viewBox="0 0 20 20" fill="none" xmlns="http://www.w3.org/2000/svg">
<path d="M9.98885 8.70395e-05C9.79985 0.00304152 9.61973 0.0808636 9.48805 0.216473C9.35636 0.352083 9.28385 0.534402 9.28644 0.723414V2.86413C9.2851 2.95868 9.30257 3.05256 9.33783 3.14031C9.37309 3.22806 9.42544 3.30792 9.49183 3.37526C9.55822 3.4426 9.63734 3.49607 9.72458 3.53257C9.81181 3.56907 9.90544 3.58786 10 3.58786C10.0946 3.58786 10.1882 3.56907 10.2754 3.53257C10.3627 3.49607 10.4418 3.4426 10.5082 3.37526C10.5746 3.30792 10.6269 3.22806 10.6622 3.14031C10.6974 3.05256 10.7149 2.95868 10.7136 2.86413V0.723414C10.7149 0.627946 10.697 0.533186 10.661 0.444746C10.6251 0.356305 10.5717 0.275983 10.5041 0.208536C10.4365 0.141088 10.3561 0.0878865 10.2676 0.0520815C10.1791 0.0162765 10.0843 -0.00140405 9.98885 8.70395e-05ZM3.43302 2.72058C3.29119 2.72089 3.15267 2.76346 3.03514 2.84286C2.91761 2.92225 2.8264 3.03486 2.77316 3.16633C2.71991 3.29779 2.70705 3.44213 2.73621 3.58094C2.76537 3.71974 2.83523 3.84671 2.93687 3.94563L4.4504 5.45919C4.51615 5.52767 4.59491 5.58234 4.68205 5.62001C4.7692 5.65767 4.86298 5.67757 4.95791 5.67853C5.05285 5.6795 5.14702 5.66151 5.23491 5.62563C5.3228 5.58974 5.40265 5.53668 5.46978 5.46955C5.53691 5.40242 5.58997 5.32257 5.62586 5.23467C5.66174 5.14678 5.67973 5.05261 5.67876 4.95767C5.6778 4.86274 5.6579 4.76895 5.62024 4.68181C5.58257 4.59466 5.5279 4.5159 5.45942 4.45015L3.94589 2.9366C3.87923 2.86808 3.79948 2.81364 3.71138 2.77653C3.62328 2.73943 3.52862 2.7204 3.43302 2.72058ZM16.5447 2.72058C16.3593 2.7261 16.1833 2.80358 16.0541 2.9366L14.5406 4.45015C14.4721 4.5159 14.4174 4.59466 14.3798 4.68181C14.3421 4.76895 14.3222 4.86274 14.3212 4.95767C14.3203 5.05261 14.3383 5.14678 14.3741 5.23467C14.41 5.32257 14.4631 5.40242 14.5302 5.46955C14.5974 5.53668 14.6772 5.58974 14.7651 5.62562C14.853 5.66151 14.9472 5.6795 15.0421 5.67853C15.137 5.67757 15.2308 5.65767 15.3179 5.62001C15.4051 5.58234 15.4838 5.52767 15.5496 5.45919L17.0631 3.94563C17.1662 3.8454 17.2367 3.71636 17.2652 3.57542C17.2937 3.43447 17.279 3.2882 17.2229 3.15577C17.1669 3.02334 17.0721 2.91094 16.9511 2.83328C16.8301 2.75562 16.6884 2.71634 16.5447 2.72058ZM10 5.00484C8.67527 5.00484 7.40479 5.5311 6.46806 6.46784C5.53133 7.40459 5.00508 8.67508 5.00508 9.99984C5.00508 11.3246 5.53133 12.5951 6.46806 13.5318C7.40479 14.4686 8.67527 14.9948 10 14.9948C11.3247 14.9948 12.5952 14.4686 13.5319 13.5318C14.4687 12.5951 14.9949 11.3246 14.9949 9.99984C14.9949 8.67508 14.4687 7.40459 13.5319 6.46784C12.5952 5.5311 11.3247 5.00484 10 5.00484ZM0.723723 9.28627C0.629167 9.28493 0.53529 9.3024 0.447544 9.33766C0.359799 9.37292 0.279937 9.42527 0.212598 9.49166C0.14526 9.55806 0.0917885 9.63717 0.0552916 9.72441C0.0187946 9.81165 0 9.90527 0 9.99984C0 10.0944 0.0187946 10.188 0.0552916 10.2753C0.0917885 10.3625 0.14526 10.4416 0.212598 10.508C0.279937 10.5744 0.359799 10.6268 0.447544 10.662C0.53529 10.6973 0.629167 10.7147 0.723723 10.7134H2.8644C2.95896 10.7147 3.05284 10.6973 3.14058 10.662C3.22833 10.6268 3.30819 10.5744 3.37553 10.508C3.44286 10.4416 3.49634 10.3625 3.53283 10.2753C3.56933 10.188 3.58812 10.0944 3.58812 9.99984C3.58812 9.90527 3.56933 9.81165 3.53283 9.72441C3.49634 9.63717 3.44286 9.55806 3.37553 9.49166C3.30819 9.42527 3.22833 9.37292 3.14058 9.33766C3.05284 9.3024 2.95896 9.28493 2.8644 9.28627H0.723723ZM17.1356 9.28627C17.041 9.28493 16.9472 9.3024 16.8594 9.33766C16.7717 9.37292 16.6918 9.42527 16.6245 9.49166C16.5571 9.55806 16.5037 9.63717 16.4672 9.72441C16.4307 9.81165 16.4119 9.90527 16.4119 9.99984C16.4119 10.0944 16.4307 10.188 16.4672 10.2753C16.5037 10.3625 16.5571 10.4416 16.6245 10.508C16.6918 10.5744 16.7717 10.6268 16.8594 10.662C16.9472 10.6973 17.041 10.7147 17.1356 10.7134H19.2763C19.3708 10.7147 19.4647 10.6973 19.5525 10.662C19.6402 10.6268 19.7201 10.5744 19.7874 10.508C19.8547 10.4416 19.9082 10.3625 19.9447 10.2753C19.9812 10.188 20 10.0944 20 9.99984C20 9.90527 19.9812 9.81165 19.9447 9.72441C19.9082 9.63717 19.8547 9.55806 19.7874 9.49166C19.7201 9.42527 19.6402 9.37292 19.5525 9.33766C19.4647 9.3024 19.3708 9.28493 19.2763 9.28627H17.1356ZM4.94097 14.3245C4.75559 14.33 4.57964 14.4075 4.4504 14.5405L2.93687 16.054C2.86839 16.1198 2.81372 16.1986 2.77606 16.2857C2.73839 16.3728 2.7185 16.4666 2.71753 16.5616C2.71657 16.6565 2.73455 16.7507 2.77044 16.8386C2.80632 16.9265 2.85938 17.0063 2.92651 17.0734C2.99364 17.1406 3.07349 17.1936 3.16138 17.2295C3.24928 17.2654 3.34345 17.2834 3.43838 17.2824C3.53331 17.2815 3.62709 17.2616 3.71424 17.2239C3.80139 17.1862 3.88014 17.1316 3.94589 17.0631L5.45942 15.5495C5.56253 15.4493 5.63296 15.3203 5.66147 15.1793C5.68998 15.0384 5.67525 14.8921 5.61921 14.7597C5.56317 14.6272 5.46842 14.5148 5.3474 14.4372C5.22637 14.3595 5.08471 14.3202 4.94097 14.3245ZM15.0381 14.3245C14.8962 14.3245 14.7575 14.3669 14.6397 14.4462C14.522 14.5255 14.4305 14.6381 14.3771 14.7696C14.3237 14.9011 14.3107 15.0456 14.3399 15.1845C14.369 15.3234 14.4389 15.4505 14.5406 15.5495L16.0541 17.0631C16.1199 17.1316 16.1986 17.1862 16.2858 17.2239C16.3729 17.2616 16.4667 17.2815 16.5616 17.2824C16.6566 17.2834 16.7507 17.2654 16.8386 17.2295C16.9265 17.1936 17.0064 17.1406 17.0735 17.0734C17.1406 17.0063 17.1937 16.9265 17.2296 16.8386C17.2654 16.7507 17.2834 16.6565 17.2825 16.5616C17.2815 16.4666 17.2616 16.3728 17.2239 16.2857C17.1863 16.1986 17.1316 16.1198 17.0631 16.054L15.5496 14.5405C15.4831 14.4721 15.4036 14.4178 15.3157 14.3807C15.2279 14.3436 15.1335 14.3245 15.0381 14.3245ZM9.98885 16.4122C9.79985 16.4152 9.61974 16.493 9.48805 16.6286C9.35636 16.7642 9.28385 16.9465 9.28644 17.1356V19.2763C9.2851 19.3708 9.30257 19.4647 9.33783 19.5525C9.37309 19.6402 9.42544 19.7201 9.49183 19.7874C9.55822 19.8547 9.63734 19.9082 9.72458 19.9447C9.81181 19.9812 9.90544 20 10 20C10.0946 20 10.1882 19.9812 10.2754 19.9447C10.3627 19.9082 10.4418 19.8547 10.5082 19.7874C10.5746 19.7201 10.6269 19.6402 10.6622 19.5525C10.6974 19.4647 10.7149 19.3708 10.7136 19.2763V17.1356C10.7149 17.0401 10.697 16.9453 10.661 16.8569C10.6251 16.7684 10.5717 16.6881 10.5041 16.6207C10.4365 16.5532 10.3561 16.5 10.2676 16.4642C10.1791 16.4284 10.0843 16.4107 9.98885 16.4122Z" fill="white"/>
</svg>
