<svg width="113" height="118" viewBox="0 0 113 118" fill="none" xmlns="http://www.w3.org/2000/svg">
<path d="M72.5 0C91.7282 0 110.169 7.63837 123.765 21.2348C137.362 34.8311 145 53.2718 145 72.5C145 91.7282 137.362 110.169 123.765 123.765C110.169 137.362 91.7282 145 72.5 145C53.2718 145 34.8311 137.362 21.2348 123.765C7.63837 110.169 0 91.7282 0 72.5C0 53.2718 7.63837 34.8311 21.2348 21.2348C34.8311 7.63837 53.2718 0 72.5 0ZM65.7031 33.9844V72.5C65.7031 74.7656 66.8359 76.8896 68.7334 78.1641L95.9209 96.2891C99.0361 98.3848 103.256 97.5352 105.352 94.3916C107.447 91.248 106.598 87.0566 103.454 84.9609L79.2969 68.875V33.9844C79.2969 30.2178 76.2666 27.1875 72.5 27.1875C68.7334 27.1875 65.7031 30.2178 65.7031 33.9844Z" fill="black"/>
</svg>
