<svg width="95" height="112" viewBox="0 0 95 112" fill="none" xmlns="http://www.w3.org/2000/svg">
<path d="M25.2334 48.3215C27.4141 42.1477 30.9541 36.342 35.9385 31.386C53.6387 13.6858 82.3271 13.6858 100.027 31.386L104.87 36.2571H95.1562C90.1436 36.2571 86.0938 40.3069 86.0938 45.3196C86.0938 50.3323 90.1436 54.3821 95.1562 54.3821H126.733H126.847C131.859 54.3821 135.909 50.3323 135.909 45.3196V13.6008C135.909 8.58813 131.859 4.53833 126.847 4.53833C121.834 4.53833 117.784 8.58813 117.784 13.6008V23.5696L112.828 18.5852C88.0479 -6.19507 47.8896 -6.19507 23.1094 18.5852C16.1992 25.4954 11.2148 33.6233 8.15625 42.3176C6.48535 47.0471 8.97754 52.2014 13.6787 53.8723C18.3799 55.5432 23.5625 53.051 25.2334 48.3499V48.3215ZM6.51367 72.8752C5.09766 73.3 3.73828 74.0647 2.63379 75.1975C1.50098 76.3303 0.736328 77.6897 0.339844 79.1624C0.254883 79.5022 0.169922 79.8704 0.113281 80.2385C0.0283202 80.72 0 81.2014 0 81.6829V113.288C0 118.301 4.0498 122.351 9.0625 122.351C14.0752 122.351 18.125 118.301 18.125 113.288V103.348L23.1094 108.304C47.8896 133.056 88.0478 133.056 112.8 108.304C119.71 101.394 124.723 93.2659 127.781 84.5715C129.452 79.842 126.96 74.6877 122.259 73.0168C117.558 71.3459 112.375 73.8381 110.704 78.5393C108.523 84.7131 104.983 90.5188 99.999 95.4749C82.2988 113.175 53.6104 113.175 35.9102 95.4749L35.8818 95.4465L31.0391 90.6321H40.7812C45.7939 90.6321 49.8438 86.5823 49.8438 81.5696C49.8438 76.5569 45.7939 72.5071 40.7812 72.5071H9.17578C8.72266 72.5071 8.26953 72.5354 7.81641 72.592C7.36328 72.6487 6.93848 72.7336 6.51367 72.8752Z" fill="black"/>
</svg>
