<svg width="104" height="117" viewBox="0 0 104 117" fill="none" xmlns="http://www.w3.org/2000/svg">
<path d="M102.743 12.6334C104.653 8.75354 103.229 4.22229 99.3125 1.7301C95.3962 -0.762086 90.0558 -0.535524 86.3985 2.23987L3.54132 65.6774C0.304711 68.1696 -0.860468 72.1627 0.660738 75.6744C2.18194 79.1862 6.06587 81.5651 10.3706 81.5651H46.4587L21.5692 132.372C19.6596 136.252 21.0837 140.783 25 143.275C28.9163 145.767 34.2567 145.541 37.9141 142.765L120.771 79.3278C124.008 76.8356 125.173 72.8424 123.652 69.3307C122.131 65.819 118.279 63.4684 113.942 63.4684H77.8538L102.743 12.6334Z" fill="black"/>
</svg>
