<svg width="100" height="126" viewBox="0 0 100 126" fill="none" xmlns="http://www.w3.org/2000/svg">
<path d="M54.375 29.6797C54.375 27.0742 52.7324 24.7803 50.6367 23.2227C47.3516 20.7588 45.3125 17.3604 45.3125 13.5938C45.3125 6.08887 53.4404 0 63.4375 0C73.4346 0 81.5625 6.08887 81.5625 13.5938C81.5625 17.3604 79.5234 20.7588 76.2383 23.2227C74.1426 24.7803 72.5 27.0742 72.5 29.6797C72.5 33.3047 75.4453 36.25 79.0703 36.25H95.1562C102.661 36.25 108.75 42.3389 108.75 49.8438V65.9297C108.75 69.5547 111.695 72.5 115.32 72.5C117.926 72.5 120.22 70.8574 121.777 68.7617C124.241 65.4766 127.64 63.4375 131.406 63.4375C138.911 63.4375 145 71.5654 145 81.5625C145 91.5596 138.911 99.6875 131.406 99.6875C127.64 99.6875 124.241 97.6484 121.777 94.3633C120.22 92.2676 117.926 90.625 115.32 90.625C111.695 90.625 108.75 93.5703 108.75 97.1953V131.406C108.75 138.911 102.661 145 95.1562 145H79.0703C75.4453 145 72.5 142.055 72.5 138.43C72.5 135.824 74.1426 133.53 76.2383 131.973C79.5234 129.509 81.5625 126.11 81.5625 122.344C81.5625 114.839 73.4346 108.75 63.4375 108.75C53.4404 108.75 45.3125 114.839 45.3125 122.344C45.3125 126.11 47.3516 129.509 50.6367 131.973C52.7324 133.53 54.375 135.824 54.375 138.43C54.375 142.055 51.4297 145 47.8047 145H13.5938C6.08887 145 0 138.911 0 131.406V97.1953C0 93.5703 2.94531 90.625 6.57031 90.625C9.17578 90.625 11.4697 92.2676 13.0273 94.3633C15.4912 97.6484 18.8896 99.6875 22.6562 99.6875C30.1611 99.6875 36.25 91.5596 36.25 81.5625C36.25 71.5654 30.1611 63.4375 22.6562 63.4375C18.8896 63.4375 15.4912 65.4766 13.0273 68.7617C11.4697 70.8574 9.17578 72.5 6.57031 72.5C2.94531 72.5 0 69.5547 0 65.9297V49.8438C0 42.3389 6.08887 36.25 13.5938 36.25H47.8047C51.4297 36.25 54.375 33.3047 54.375 29.6797Z" fill="black" fill-opacity="0.992157"/>
</svg>
