<svg width="87" height="110" viewBox="0 0 87 110" fill="none" xmlns="http://www.w3.org/2000/svg">
<path d="M16.6667 0C7.47396 0 0 7.84766 0 17.5V122.5C0 132.152 7.47396 140 16.6667 140H83.3333C92.526 140 100 132.152 100 122.5V43.75H66.6667C62.0573 43.75 58.3333 39.8398 58.3333 35V0H16.6667ZM66.6667 0V35H100L66.6667 0ZM39.8438 79.0234L31.7708 87.5L39.8438 95.9766C42.2917 98.5469 42.2917 102.703 39.8438 105.246C37.3958 107.789 33.4375 107.816 31.0156 105.246L18.4896 92.1484C16.0417 89.5781 16.0417 85.4219 18.4896 82.8789L30.9896 69.7539C33.4375 67.1836 37.3958 67.1836 39.8177 69.7539C42.2396 72.3242 42.2656 76.4805 39.8177 79.0234H39.8438ZM69.0104 69.7266L81.5104 82.8516C83.9583 85.4219 83.9583 89.5781 81.5104 92.1211L69.0104 105.246C66.5625 107.816 62.6042 107.816 60.1823 105.246C57.7604 102.676 57.7344 98.5195 60.1823 95.9766L68.2552 87.5L60.1823 79.0234C57.7344 76.4531 57.7344 72.2969 60.1823 69.7539C62.6302 67.2109 66.5885 67.1836 69.0104 69.7539V69.7266Z" fill="black"/>
</svg>
