<svg width="112" height="114" viewBox="0 0 112 114" fill="none" xmlns="http://www.w3.org/2000/svg">
<path d="M47.125 99.6875C73.157 99.6875 94.25 77.3711 94.25 49.8438C94.25 22.3164 73.157 0 47.125 0C21.093 0 7.67666e-06 22.3164 7.67666e-06 49.8438C7.67666e-06 60.7754 3.33048 70.8857 8.97188 79.127C8.17891 81.7891 7.00079 84.1396 5.75469 86.1221C4.66719 87.8779 3.55704 89.2373 2.74141 90.1719C2.3336 90.625 1.99376 90.9932 1.7672 91.2197C1.65391 91.333 1.56329 91.418 1.51798 91.4463L1.47266 91.5029C0.22657 92.6641 -0.31718 94.7031 0.181258 96.5439C0.679695 98.3848 2.06173 99.6875 3.62501 99.6875C8.56407 99.6875 13.5484 98.1016 17.6945 96.1475C19.7789 95.1562 21.7274 94.0518 23.4039 92.9189C30.382 97.2236 38.4703 99.6875 47.125 99.6875ZM101.5 49.8438C101.5 81.6475 79.0477 105.606 52.4492 108.467C57.9547 129.537 76.2156 145 97.875 145C106.53 145 114.618 142.536 121.596 138.231C123.295 139.364 125.221 140.469 127.305 141.46C131.452 143.414 136.436 145 141.375 145C142.938 145 144.343 143.726 144.819 141.856C145.295 139.987 144.773 137.948 143.505 136.787L143.459 136.73C143.414 136.674 143.323 136.617 143.21 136.504C142.984 136.277 142.644 135.938 142.236 135.456C141.42 134.521 140.31 133.162 139.223 131.406C137.977 129.424 136.798 127.045 136.005 124.411C141.647 116.198 144.977 106.088 144.977 95.1279C144.977 68.8467 125.742 47.2949 101.341 45.4258C101.432 46.8701 101.477 48.3428 101.477 49.8154L101.5 49.8438Z" fill="black"/>
</svg>
