<svg width="63" height="72" viewBox="0 0 63 72" fill="none" xmlns="http://www.w3.org/2000/svg">
<path d="M1.32187 32.8218C-0.43594 34.5796 -0.43594 37.4343 1.32187 39.1921L23.8219 61.6921C25.5797 63.45 28.4344 63.45 30.1922 61.6921C31.95 59.9343 31.95 57.0796 30.1922 55.3218L15.3563 40.5L58.5 40.5C60.9891 40.5 63 38.489 63 36C63 33.5109 60.9891 31.5 58.5 31.5L15.3703 31.5L30.1781 16.6781C31.9359 14.9203 31.9359 12.0656 30.1781 10.3078C28.4203 8.54995 25.5656 8.54995 23.8078 10.3078L1.30781 32.8078L1.32187 32.8218Z" fill="white"/>
</svg>
