<svg width="50" height="46" viewBox="0 0 50 46" fill="none" xmlns="http://www.w3.org/2000/svg">
<g clip-path="url(#clip0_4_6)">
<path fill-rule="evenodd" clip-rule="evenodd" d="M28.051 1.26194C26.2987 -0.414455 23.4583 -0.413905 21.7068 1.26318L7.08867 15.2597L7.07622 15.2562L7.03002 15.261C7.04905 15.2697 7.06772 15.2784 7.08602 15.2871C4.5217 15.5442 3.43369 16.2818 3.42138 17.2289C3.42572 17.5812 3.57675 17.9617 3.85417 18.3567L3.84083 18.3695C6.17207 21.7347 17.7209 26.1739 25.8914 23.1662C19.7679 26.0965 5.34689 26.6773 1.1112 20.9877C0.191344 21.9401 -0.193518 23.1918 -0.0485848 24.3945C1.07037 30.2972 13.5803 31.9076 26.0903 23.3553L28.7974 25.9463C25.4288 29.2586 20.453 48.4984 27.8466 45.5608C28.0219 45.4469 28.1708 45.3449 28.3733 45.1983L28.7028 44.9006C28.6838 44.905 28.6649 44.9093 28.6461 44.9136L48.4477 27.022C50.2862 25.3607 50.3279 22.5741 48.5395 20.8632L28.051 1.26194ZM25.8947 7.09264L26.5714 4.50171L27.2482 7.09264L29.2785 7.74038L27.2482 8.38813L26.5714 10.9791L25.8947 8.38813L23.8643 7.74038L25.8947 7.09264ZM17.5178 15.5506L17.969 13.8233L18.4202 15.5506L19.7738 15.9824L18.4202 16.4142L17.969 18.1416L17.5178 16.4142L16.1643 15.9824L17.5178 15.5506ZM33.2319 30.1203L32.7808 31.8475L31.4273 32.2794L32.7808 32.7112L33.2319 34.4384L33.6831 32.7112L35.0367 32.2794L33.6831 31.8475L33.2319 30.1203Z" fill="black"/>
<path fill-rule="evenodd" clip-rule="evenodd" d="M49.9747 2.98276C45.7414 2.98276 41.7268 4.7824 39.0166 7.89497L29.3751 18.9684L34.9425 10.9755L25.701 14.7662C24.5274 15.2477 24.2329 16.7112 25.1357 17.5753L28.1097 20.4216L26.5913 22.1655L29.9319 25.3626L31.7539 23.9094L34.7279 26.7557C35.6307 27.6198 37.1599 27.338 37.6628 26.2148L41.6234 17.3699L33.2723 22.6984L44.8423 13.4705C48.0944 10.8767 49.9747 7.0344 49.9747 2.98276ZM40.7885 11.775C41.7108 12.6579 43.2064 12.6579 44.1289 11.775C45.0513 10.8921 45.0513 9.46075 44.1289 8.57794C43.2064 7.69503 41.7108 7.69503 40.7885 8.57794C39.8659 9.46075 39.8659 10.8921 40.7885 11.775Z" fill="#3498DB"/>
<path opacity="0.6" d="M1.01245 20.8451C3.22424 28.0977 16.6715 27.7196 25.8975 23.1735C19.7196 26.1281 5.10534 26.6924 1.01245 20.8451Z" fill="#424242"/>
<path opacity="0.6" d="M27.8488 45.5604C21.6188 48.0356 24.1714 34.7644 27.1444 28.5444C24.9773 34.073 23.1274 46.2604 28.705 44.9001L28.3755 45.1979C28.173 45.3445 28.0241 45.4465 27.8488 45.5604Z" fill="#424242"/>
</g>
<defs>
<clipPath id="clip0_4_6">
<rect width="50" height="46" fill="white"/>
</clipPath>
</defs>
</svg>
